<svg id="Layer_1" data-name="Layer 1" xmlns="http://www.w3.org/2000/svg" viewBox="0 0 1000 1000"><defs><style>.cls-1{fill:#fefefe;}.cls-2{fill:#57c0c6;}.cls-3{fill:#58c0c7;}.cls-4{fill:#55c1c7;}.cls-5{fill:#59c1c5;}.cls-6{fill:#59bfc6;}.cls-7{fill:#57c1c8;}.cls-8{fill:#5cbfc8;}.cls-9{fill:#5bc0c6;}.cls-10{fill:#5ac1cb;}.cls-11{fill:#5cc1ca;}.cls-12{fill:#5cc2cc;}.cls-13{fill:#5ec1c8;}.cls-14{fill:#5ec0c8;}.cls-15{fill:#6cc4ca;}.cls-16{fill:#60c3c9;}.cls-17{fill:#62c2cc;}.cls-18{fill:#69c6cc;}.cls-19{fill:#4bbfc9;}.cls-20{fill:#47c1c9;}.cls-21{fill:#1c949c;}.cls-22{fill:#e21f28;}.cls-23{fill:#49c0ca;}.cls-24{fill:#e12129;}.cls-25{fill:#e31f29;}.cls-26{fill:#e2202a;}.cls-27{fill:#105a61;}.cls-28{fill:#11595f;}.cls-29{fill:#125a5f;}.cls-30{fill:#115b60;}.cls-31{fill:#145c60;}.cls-32{fill:#145b61;}.cls-33{fill:#58c0c9;}.cls-34{fill:#185e64;}.cls-35{fill:#125b60;}.cls-36{fill:#115c60;}.cls-37{fill:#135c5f;}.cls-38{fill:#105b60;}.cls-39{fill:#145d62;}.cls-40{fill:#da2c35;}.cls-41{fill:#145d61;}.cls-42{fill:#175e62;}.cls-43{fill:#e02229;}.cls-44{fill:#145c63;}.cls-45{fill:#26959d;}.cls-46{fill:#db252d;}.cls-47{fill:#1b6165;}.cls-48{fill:#4dc0c9;}.cls-49{fill:#df242d;}.cls-50{fill:#db262a;}.cls-51{fill:#dd262b;}.cls-52{fill:#4cc1cf;}.cls-53{fill:#54bfcf;}.cls-54{fill:#52c1cf;}.cls-55{fill:#dee8e9;}.cls-56{fill:#51bfcb;}.cls-57{fill:#78c9cc;}.cls-58{fill:#53c1ca;}.cls-59{fill:#e3252e;}.cls-60{fill:#db333c;}.cls-61{fill:#885259;}.cls-62{fill:#25969e;}.cls-63{fill:#bfd1d3;}.cls-64{fill:#d4363d;}.cls-65{fill:#c54652;}.cls-66{fill:#51c1d0;}.cls-67{fill:#d0dee0;}.cls-68{fill:#95b8bc;}.cls-69{fill:#99ced2;}.cls-70{fill:#d16d73;}.cls-71{fill:#d5e1e3;}.cls-72{fill:#a6d3d5;}.cls-73{fill:#7ac4c4;}.cls-74{fill:#78c3cf;}.cls-75{fill:#e22434;}.cls-76{fill:#24686d;}.cls-77{fill:#24656f;}.cls-78{fill:#62bfc6;}.cls-79{fill:#d04f58;}.cls-80{fill:#da6d74;}.cls-81{fill:#cbe0e2;}.cls-82{fill:#e0e9eb;}.cls-83{fill:#5ac0c7;}.cls-84{fill:#28989b;}.cls-85{fill:#0f4e54;}.cls-86{fill:#67c1c9;}.cls-87{fill:#bfd4d7;}.cls-88{fill:#4dbdcb;}.cls-89{fill:#41c3c5;}.cls-90{fill:#41c4c8;}.cls-91{fill:#1c959c;}.cls-92{fill:#fcfbfb;}.cls-93{fill:#ebf4f5;}.cls-94{fill:#34999f;}.cls-95{fill:#e6f1f2;}.cls-96{fill:#23969d;}.cls-97{fill:#23969a;}.cls-98{fill:#cbe5e9;}.cls-99{fill:#cde7e9;}.cls-100{fill:#8dbfc7;}.cls-101{fill:#ece3e5;}.cls-102{fill:#e9e6e7;}.cls-103{fill:#d8ebed;}.cls-104{fill:#a2cfd3;}.cls-105{fill:#bddee0;}.cls-106{fill:#7ac0c3;}.cls-107{fill:#449da1;}.cls-108{fill:#dbedf0;}.cls-109{fill:#020202;}.cls-110{fill:#090908;}.cls-111{fill:#0b0b0b;}.cls-112{fill:#090807;}.cls-113{fill:#d92a2f;}.cls-114{fill:#db2e37;}.cls-115{fill:#d53f42;}.cls-116{fill:#e01f21;}.cls-117{fill:#e81b28;}.cls-118{fill:#ebf0f0;}.cls-119{fill:#c6d6d8;}.cls-120{fill:#bed2d3;}.cls-121{fill:#f2f5f5;}.cls-122{fill:#bed3d5;}.cls-123{fill:#b0c9cb;}.cls-124{fill:#f5f8f8;}.cls-125{fill:#185d64;}.cls-126{fill:#68959d;}.cls-127{fill:#1a969c;}.cls-128{fill:#deedef;}.cls-129{fill:#e2f0f1;}.cls-130{fill:#179797;}.cls-131{fill:#349ba1;}.cls-132{fill:#f3fcfd;}.cls-133{fill:#91cacd;}.cls-134{fill:#80c3c7;}.cls-135{fill:#ddeff0;}.cls-136{fill:#aed8db;}.cls-137{fill:#c8e5e7;}.cls-138{fill:#9dd1d3;}.cls-139{fill:#daecee;}</style></defs><path class="cls-1" d="M529.41,648.61q-164.16,0-328.32.09c-3.28,0-4.16-.48-4.15-4q.18-183.37,0-366.76c0-3.88,1.14-4.21,4.46-4.21q328.56.12,657.13,0c3.44,0,4.42.5,4.41,4.26q-.2,183.14,0,366.27c0,4-1.14,4.47-4.7,4.46Q693.82,648.54,529.41,648.61Z"/><path class="cls-2" d="M416.54,387.2c8.18-13.27,19.48-23.5,32-32.47,14.39-10.3,30.57-16.5,47.78-20.22,1.95-1,4.21.24,6.15-.84,3.62.11,7-1.72,10.7-1.18a81.63,81.63,0,0,1,17.54,0l10.7,1.17a1,1,0,0,1-.27,1.38c-2.28,1.2-4.7.79-7.1.58a12.14,12.14,0,0,1-1.57-.32c-6.88-.72-13.77-.38-20.65-.16a9.37,9.37,0,0,1-1.47.39c-1.93.37-3.95.13-5.79,1-9.09,2.53-18.36,4.22-27.26,7.7A124.36,124.36,0,0,0,423,385c-1.53,2-2.47,4.91-5.81,4.83C416,389.17,415.92,388.28,416.54,387.2Z"/><path class="cls-3" d="M617.28,374.44c6.33,5.53,10.72,12.58,15,19.63a118,118,0,0,1,15,37.11c.79,4.34,1,8.76,2,13.05l0-.06c1.17,2.24-.42,4.86,1,7.07l.06,3.71a34.5,34.5,0,0,1,0,11.47v1.72c-1.52,2.61.17,5.61-1,8.27a.65.65,0,0,1,0,.74,1.13,1.13,0,0,1-1.22.3,2.67,2.67,0,0,1-1.3-1.57,5,5,0,0,1,0-1.4,21.88,21.88,0,0,0,.19-4.92,23.68,23.68,0,0,1,.37-5.25,11.94,11.94,0,0,0-.08-7.52c-.53-4-1.58-7.87-1.38-11.91,0-1.74.24-3.51-.64-5.14-2-7.17-3.5-14.47-5.91-21.56-4.77-14.05-12.93-26.1-21.69-37.84-1-1.32-2.29-2.44-2.51-4.22A2.09,2.09,0,0,1,617.28,374.44Z"/><path class="cls-4" d="M647.32,489.39c-6.4,27.47-19.8,50.68-41.86,68.61-1.61.49-1.66-.7-1.86-1.72.12-1.65,1.29-2.67,2.38-3.66,18.88-17.13,30.83-38.36,37.35-62.82a20.49,20.49,0,0,1,1.06-2.79c.78-1.31.49-3.28,2.65-4A8.89,8.89,0,0,1,647.32,489.39Z"/><path class="cls-5" d="M436.34,556.07c-6.3-3.4-10.09-9.36-14.42-14.64a124.48,124.48,0,0,1-25.34-52.09,2.41,2.41,0,0,1-.12-2.23c1.17-.58,2,.06,2.69.82,3.54,5.71,4.48,12.4,7.06,18.49,5.46,12.87,12.24,24.84,21.44,35.5,3.62,4.18,7.67,8.14,10.28,13.16C437.69,555.88,437.31,556.44,436.34,556.07Z"/><path class="cls-6" d="M617.28,374.44a2.27,2.27,0,0,1-2.08,1.08l-.44-.45c-.6-1-1.64-1.18-2.68-1.37-5.92-4.49-11.05-9.87-17.1-14.23a125.88,125.88,0,0,0-36.67-18.2c-2.62-.82-5.6-1.08-7.37-3.68a2.06,2.06,0,0,1,.44-2.09c19.06,3.69,35.72,12.44,50.83,24.31C607.72,364.13,613.3,368.49,617.28,374.44Z"/><path class="cls-7" d="M583.45,573.08c-5.7,4.84-12.86,6.86-19.63,9.28-13.18,4.71-27.05,6.45-41,7.24a12.86,12.86,0,0,1-6.37-.76c-.5-1.69.64-2.24,1.9-2.7a36.55,36.55,0,0,0,8.81-1.34,122.32,122.32,0,0,0,49.56-12.53,10.78,10.78,0,0,1,4.76-1.26C582.59,571.26,583.8,571.42,583.45,573.08Z"/><path class="cls-8" d="M416.54,387.2c.11.9.25,1.79,1.19,2.25.63,1.8-.29,3.26-1.14,4.65A130,130,0,0,0,400,435.41a4.13,4.13,0,0,1-1.57,3c-2.55-.29-1.46-2.74-2.37-4A113.85,113.85,0,0,1,416.54,387.2Z"/><path class="cls-9" d="M479.41,581.89a118.68,118.68,0,0,1-37.83-21c-.82-1.11-.42-1.91.64-2.55,1.84-.59,3.17.42,4.49,1.44,8.82,6.82,18.62,11.92,28.81,16.32,2.1.9,4.42,1.57,5.49,3.93C481,581.1,481.12,582.31,479.41,581.89Z"/><path class="cls-10" d="M396.08,434.39c1.63,1,1.6,2.66,1.78,4.25,1.45,1.74,1.1,3.75.8,5.71a126.11,126.11,0,0,0-1.5,23.29c-.14,2.52-.33,5,.49,7.5,0,4.36,3.37,8.42,1.16,13l-2.09-1c-1.18-1.12.11-2.88-1.05-4-3.49-14.24-3.3-28.54-.7-42.88C395.32,438.28,395.71,436.34,396.08,434.39Z"/><path class="cls-11" d="M479.41,581.89a2.13,2.13,0,0,0,1.11-2.12,3.89,3.89,0,0,1,4.17-.64,114.38,114.38,0,0,0,31.5,5.48,4.51,4.51,0,0,1,1.86.62,1.37,1.37,0,0,1,.64,1.48,3.6,3.6,0,0,0-2.25,2.13A109.93,109.93,0,0,1,479.41,581.89Z"/><path class="cls-12" d="M583.45,573.08a2,2,0,0,0-2.05-1.21c1-3.89,5.4-3.92,7.41-6.65a13.59,13.59,0,0,0,5.23-3c3.63-1.8,5.83-5.87,10.23-6.42a2.19,2.19,0,0,0,1.19,2.15c-5.75,4.24-11,9.2-17.11,12.9C586.81,571.83,585.39,573.05,583.45,573.08Z"/><path class="cls-13" d="M551.38,335.5v2.12a2.26,2.26,0,0,1-1.42.44,37.05,37.05,0,0,0-5.37-.13c-3.8-.9-8.31.59-11.23-3.28l8.06-.07a9.67,9.67,0,0,1,6.22-.07Z"/><path class="cls-14" d="M647.32,489.39v-5.51c-1.87,1.19-.4,3.42-2.11,4.23-2.36-3.9-1-7.46,1-11a.94.94,0,0,1,1.26.27c.42.52-.07,1.22.31,1.77,0-.7-.17-1.46.45-2h1A39.71,39.71,0,0,1,647.32,489.39Z"/><path class="cls-15" d="M442.9,558.72a2.27,2.27,0,0,0-1.32,2.19c-1.89-1.46-4.16-2.51-5.24-4.85l1.27-1.24C441,553.87,442.24,555.92,442.9,558.72Z"/><path class="cls-13" d="M530.7,332.5H513.16A37.94,37.94,0,0,1,530.7,332.5Z"/><path class="cls-14" d="M649.3,444.23c-1.9-4.16-2.24-8.56-2-13.05C648.83,435.39,649.13,439.8,649.3,444.23Z"/><path class="cls-14" d="M650.29,466.42c0-3.82,0-7.64,0-11.47A19.83,19.83,0,0,1,650.29,466.42Z"/><path class="cls-14" d="M649.3,476.41c.28-2.77-1.13-5.73,1-8.27C650.34,470.94,650.61,473.77,649.3,476.41Z"/><path class="cls-14" d="M650.24,451.24c-2-2.13-.7-4.71-1-7.07C650.53,446.4,650.24,448.84,650.24,451.24Z"/><path class="cls-16" d="M547.64,334.51l-6.22.07c0-.3,0-.61,0-.91C543.52,333.66,545.67,333.38,547.64,334.51Z"/><path class="cls-17" d="M395.67,483.12c1.47,1,.84,2.63,1.05,4-.05.73-.1,1.47-.14,2.21C395.36,487.4,395.74,485.23,395.67,483.12Z"/><path class="cls-18" d="M502.46,333.67c-1.86,1.66-4.08.72-6.15.84C498.23,333.32,500.38,333.69,502.46,333.67Z"/><path class="cls-1" d="M442.9,558.72c-1.66-1.44-2.71-3.7-5.29-3.9-15-14.84-26.76-31.89-34.16-51.74-1.82-4.89-3.11-10-4.64-15,.25-4.48-2.49-8.46-2.15-13-1.19-2.31.2-4.94-.88-7.27a177.8,177.8,0,0,1,2.08-29.24c2.54-12,6-23.61,11.68-34.51,2.58-5,5.45-9.79,8.19-14.68,8.4-10.85,17.3-21.17,28.46-29.41,16.07-11.86,33.73-19.93,53.48-23.31,1.62-.27,3.2-.74,4.8-1.12,1.86-1.26,4.18.23,6-1l0,0a95.08,95.08,0,0,1,22.93,0l0,0a42.88,42.88,0,0,0,11.78,2c1.63.93,3.56-.09,5.21.79l1,.15c10.44,3.63,21,6.83,30.75,12.3A124.82,124.82,0,0,1,611,371.57a17.41,17.41,0,0,0,2.39,1.74,4.47,4.47,0,0,1,1.87,2.22h0c10.41,12.52,19.35,25.9,24.9,41.35a189.32,189.32,0,0,1,6.14,22.4c1.09,1.57-.18,3.55.92,5.12-.48,4.35,1.07,8.53,1.12,12.84a12.5,12.5,0,0,1,0,6.94c0,1.9-.11,3.8-.17,5.7-.91,1.65.11,3.6-.8,5.25l-.06,1c.28.23.36.42.22.57a.51.51,0,0,1-.36.2,30,30,0,0,0-1.89,11.18c-4.16,14.18-9.14,28-17.32,40.47a136.37,136.37,0,0,1-23.62,27.27c-3.51,2.07-5.9,5.73-10,7a18.83,18.83,0,0,1-5,3c-1.67,3.26-5.73,3.39-7.91,6C568.17,578,554.54,582.93,540,585.12a57.5,57.5,0,0,1-13.35.76c-2.83.43-5.65,1.15-8.48,0-11.16.61-21.84-1.94-32.42-5-1.74-.51-3.39-1.25-5.25-1.11C467.18,574.18,454.4,567.59,442.9,558.72Z"/><path class="cls-13" d="M533.41,334.67H510.48A50.59,50.59,0,0,1,533.41,334.67Z"/><path class="cls-13" d="M510.52,334.63c-1.85,1.33-4,.84-6,1C506.24,333.77,508.49,334.87,510.52,334.63Z"/><path class="cls-14" d="M648.27,464.17q0-3.48,0-6.94A6,6,0,0,1,648.27,464.17Z"/><path class="cls-19" d="M647.1,476.93a.88.88,0,0,1,.14-.77l1,1c-.19,1,.45,2.19-.77,3.2C647.31,479.11,647.21,478,647.1,476.93Z"/><path class="cls-14" d="M647.16,444.39c-1.14-1.56-1-3.35-.92-5.12C647.87,440.74,647,442.66,647.16,444.39Z"/><path class="cls-14" d="M647.3,475.12c-.11-1.8-.29-3.62.8-5.25C648,471.65,648.85,473.57,647.3,475.12Z"/><path class="cls-3" d="M615.21,375.53a2.87,2.87,0,0,1-1.87-2.22C615.35,372.88,616.13,373.48,615.21,375.53Z"/><path class="cls-1" d="M518.19,585.9l8.48,0c-2.63.58-5.21,1.65-8,.83C518.52,586.44,518.35,586.17,518.19,585.9Z"/><path class="cls-17" d="M395.78,467.88c1.18,2.32.88,4.81.88,7.27C394.77,472.92,396,470.32,395.78,467.88Z"/><path class="cls-1" d="M589.31,565.88c1.48-1.31,2.86-2.78,5-3C593.07,564.59,591.73,566.12,589.31,565.88Z"/><path class="cls-16" d="M550.35,337.47c-1.78,0-3.59.24-5.21-.79C546.9,336.78,548.8,336,550.35,337.47Z"/><path class="cls-20" d="M438.36,511.11c-12.28-21.34-17.32-43.87-12.17-68.4,2.26-10.79,5.52-21,11.42-30.35a3.1,3.1,0,0,0,1.91-3.17,88.08,88.08,0,0,1,32.77-31.85,1.42,1.42,0,0,1,1.25-.15c.57,1.63,1.74,3,2.26,4.64.66,1.23-4.44.88-.79,3a1.37,1.37,0,0,1-.13,2.45c-2.88.83-3.83,5.82-8.4,3.64-.69-.33-3.54,3.61-4.11,5.95-.73,3.06-1.77,5.42-5,5.91-2.87.43-.55,2.41-1.29,3.4a13.8,13.8,0,0,0-4.54,9.1c-3.49,8.53-7.28,16.94-8.59,26.22-.36,2.58.09,5.33-1.24,7.76s-1,5.26-.48,7.57c.79,3.43-.18,7.05,1.45,10.3-.52,1.78,1,3.17,1,4.85a16.49,16.49,0,0,1-.21,9.26c.57-.82.31-2.47,2.09-2.07v0c1.08,2.18.51,4.89,2.25,6.86,4.94,9.3,9.6,18.75,16.64,26.81,16.46,18.85,36.78,26.14,61.41,21a7.64,7.64,0,0,0,5.78-4.74c3.62-7.67,9.64-13.77,14.49-20.65,2.4-3.39,4.46-7,3.6-11.42.93-2,2.32-3.32,4.68-2.73a6.16,6.16,0,0,1,4.74,4.66c1.14,4.74,1.53,9.5-1,14-1.44,2.61-3,5.19-4.21,7.9-1.58,3.47-.33,5.42,3.45,5.69a13.65,13.65,0,0,0,6.69-1.65c16.11-7.36,27.61-19.23,34.83-35.32a7.12,7.12,0,0,1,1-1,25.81,25.81,0,0,1,4-2.33c1.79-.82.83-3.29,2.51-4.17,2.8,9-1.17,16.74-4.45,24.61-.76,1.82-1.81,3.51-2.72,5.27-3.4,4.37-5.15,9.76-8.63,14.05-1.29,1.58-1.46,5.29-5.24,3.18-1-.54-.77.7-.64,1.16a5.13,5.13,0,0,1-.33,3.81,57.27,57.27,0,0,1-23,15.73c-2.83,1.51-6.87-.44-9,3.11-15.2,4.85-30.52,6.88-46.49,3.9-20.17-3.76-37.72-12.25-52.43-26.54-1.42-1.38-2.63-3-3.94-4.45-.95-3.48-3.93-5.39-6.11-7.92-.64-.65-1.27-1.31-1.9-2A10.08,10.08,0,0,0,438.36,511.11Z"/><path class="cls-21" d="M600.36,489.16c-5,12.59-13.29,22.57-24.19,30.51a71,71,0,0,1-14.79,7.78,9.67,9.67,0,0,1-6.35.22c-3.07-.85-4.51-2.78-2.94-6a60.4,60.4,0,0,1,4.42-8.25c3.2-4.55,2.46-9.49,1.61-14.28-.7-3.9-4.37-4.62-8.4-2.13-1.31-4.38-2.1-9.06-6.26-11.91-1.62-1.1-3.32-2.2-5.48-1.73a11,11,0,0,1-4.76,1,117.43,117.43,0,0,1-19-3.66c-2.07-.6-4.21-1.06-5.67-2.85a2.3,2.3,0,0,1-.39-1.37c1.09-2,2.95-.44,4.37-.92.67,0,.3-.31.15-.24-1.45.68-2.81-.26-4.24-.45-2.22-1.19-4.72-1.75-6.9-3a4.39,4.39,0,0,1-1.64-2.11c-.36-1.46-.11-3-.85-4.43a3.72,3.72,0,0,1-.13-1.37,3.76,3.76,0,0,1,3.72-2.8c4,1,6-.21,5.8-4-.08-2.18-.16-4.51,2.17-4.83,2.83-.39,3.16,2.27,3.54,5.19,1.08-4.57,2.46-8.07,7-9.22a6.34,6.34,0,0,0,3.74-2.28c2-3,3.33-2.94,4.46.53a2.76,2.76,0,0,0,1.57,1.86c5.56,1.22,5.39,5.63,4.51,9.39-1,4.35-.75,8,2.19,11.64,1.66-.69,1.61-4.87,5.07-3.4a11,11,0,0,1,3,6.3c2.14,3.95,6.34,4.66,9.95,6.26,5.76,1.69,8.78-2,11.71-5.92a9.29,9.29,0,0,1,1.46-1.48c2.09-.88,3.31-5,6.77-1.56-.11-2.12-1.23-4.06.06-5.88a2.58,2.58,0,0,1,2.36-1.27,3.46,3.46,0,0,1,1.83.81c2.92,1.22,3.3-1.68,4.7-2.92a11.7,11.7,0,0,0,1.36-7.58c-.54-2.31-.89-4.69-2.16-6.76a39.67,39.67,0,0,0-2.26-3.83,5.2,5.2,0,0,1-1.22-2.26,5.77,5.77,0,0,0-4.44-4.91,4.13,4.13,0,0,1-2.31-2.59,4.07,4.07,0,0,1,.24-2.81c2.13-2.12,3.73.08,5.53.68,1.94,1.34,3.91,2.65,5.1,4.78a9.56,9.56,0,0,0,2.84,3.19l1,1.08a6,6,0,0,0,2.3,3.81c3.6,6.79,7.1,13.67,8.92,21.16a21.55,21.55,0,0,0,1.81,5.79c.59,2-.71,4.72,2.17,5.89l-.05,0c.49,1.45.56,3.12,2.11,4l0-.06c-1.09,2.28,1.6,5.2-1.2,7.19-1.38.56-2.22,2.15-3.95,2-.1-.12-.27-.17-.32-.34C600.48,489.31,599.9,488.67,600.36,489.16Z"/><path class="cls-1" d="M512.27,395.5c.49.05,1.24-.09,1.43.17,2.5,3.49,5.73,2.57,9,1.61.9-1.18,2.34-1.77,3.18-3,1.38-1.53,3.26-2.37,4.89-3.57,2.24-.49,4-2.23,6.33-2.46a80.47,80.47,0,0,1,11.41,0,7.24,7.24,0,0,1,2.86,1.16,48.46,48.46,0,0,1,6.82,6.14,5.09,5.09,0,0,1,.87,1.09,47.09,47.09,0,0,0,2.69,4.93c2.53,6.83,5.93,13.4,6.36,20.87a2.77,2.77,0,0,1-.82,1.33c-2.79,1.79-5.74.11-8.63.34-6.31.51-12.1,2.62-17.81,5.1-2.44,1-4.8,2.25-7.24,3.29a8,8,0,0,0-5,6.26c-1.15,5.68-4.77,9.1-10.46,10.58-4.79,1.24-9.45,3-14.39,3.72-5.71,1.67-6.61,3.12-5.44,8.91.23,1.13.41,2.27.72,3.39.6,1.52.61,2.93-.73,4.1a2.64,2.64,0,0,1-1.46.27c-2.65-.95-4.07-3.38-6.12-5.06a114.26,114.26,0,0,1-13.86-15.39c-1-1.45-3.11-3.12-.08-4.73a18.39,18.39,0,0,1,12,3.76c1.88,1.47,4.22,2.37,6.46,1s2.08-4,1.46-6.28c-1.23-4.46-1.08-10.07-7.31-11.1-4.88-.81-11.35,3.85-13.76,9.48-1.32,3.31-2.9,1.9-4,0a46.61,46.61,0,0,1-4.81-9.6,11.06,11.06,0,0,1-.47-1.48c-1.84-6.66-3.38-13.32-.21-20,1.33-1.18,1.55-3.13,2.93-4.28a49.51,49.51,0,0,0,4.3-2.59c6.81-2.82,13.79-4.77,21.29-4.26a21.23,21.23,0,0,1,12.74,5c3,2.54,5.5,5.37,4.11,10,6.66-2.1,9.15-6.86,7.21-12.44-.41-1.17-.83,0-1.27-.21C514.86,400.23,512.53,398.77,512.27,395.5Z"/><path class="cls-22" d="M527.41,490.12l-1.76,1.06c-1.4,1.75-4,1.86-5.23,3.87-.4,1,.55,1.37,1,2,1,1.53,1.23,3.51,2.55,4.77,2.58,2.43,1.72,4.4-.29,6.66-3,3.38-3.45,3.43-6.32-.36l-6-7.79c-2.84-.35-4.89,1.19-6.86,2.9l0,0c-1.69.15-3.14,1.89-5.17.86.39-3.09,3.53-2.61,5-4.12,4-2.11,3.08-4.1.45-7-9.15-10.14-19.73-18.88-28.48-29.39-.32-1.75-2.2-2.6-2.51-4.36a6.89,6.89,0,0,1,4.26-6.4c5.25,2,7.66,7.22,11.74,10.56.73.59,1.1,1.61,2,2.08a25.48,25.48,0,0,1,4,3.84c7.68,6.3,13.52,14.46,21.1,20.84,1.93,1,3.47-.28,5.15-.83s3.45-2.14,5.57-1A1.55,1.55,0,0,1,527.41,490.12Z"/><path class="cls-23" d="M455.56,406.37c.22-1.66-1.49-2.48-1.77-4.28,1.11-.15,2.18-.33,3.26-.43,2.86-.28,4.6-1.45,3.83-4.67-.26-1.11-.74-2.95.48-3,5.17-.21,2.32-3.82,2.81-6.82,4.62,5.92,7.53,1.51,10.78-1-.25-2.74-3.24,1.74-3.29-1.37-.05-2.66,2.45-2.38,3.87-3.35,1-.54,3.17.42,2.71-2a3.12,3.12,0,0,1,.56-.8,1,1,0,0,0-.84.48c-1.88.79-4,2-3.77-1.69,1.51-1.67,3.79-2.34,5.29-4,10.67-5.23,21.77-8.8,33.78-9,6.51-.23,13.22-2,20.25,2.61-5,1.47-9.23-.09-13,1.59-10.11,2.41-20.19,4.62-29.61,9.46a91.62,91.62,0,0,0-33.14,28.35,7.92,7.92,0,0,1-1.07,1C455.64,407.74,455.36,407.3,455.56,406.37Z"/><path class="cls-24" d="M512.27,395.5c2.62,1.15,3,5.81,7.16,4.57.16-.05.41.24.63.37-2.46,3.23,2.36,6.91-.85,10.31s-3.38,3.79-8.87,4.85c1-8.44-5.38-14.66-15.52-15.41-7.48-.56-14.36,1.68-21.21,4.22-1.22.59-2.19.71-2.12-1.13a40.58,40.58,0,0,1,24.12-10.66C501.39,392.1,507.09,392.4,512.27,395.5Z"/><path class="cls-25" d="M472.29,458.45a35.8,35.8,0,0,1-6.84-9.95c-1.19-1.09.85-3.86-2.1-4l0,0c-.86-1.63-.75-3.63-2-5.13l0,.07c-.62-3.21-1.52-6.36-2.15-9.59-1.11-5.62,1.2-10.28,3.27-15.09.32-.74.76-1.65,1.75-1.26s.94,1.28.77,2.13c-1.11,5.56.89,10.58,2.64,15.65l-.06-.08c.76,5.7,3.53,10.44,7.09,14.8a14.86,14.86,0,0,1,2.19,3.78c0,1.51-.36,3.49-1.83,3.61-3.58.28-1.41,2.75-1.94,4.15A1.72,1.72,0,0,1,472.29,458.45Z"/><path class="cls-26" d="M551.33,390.53l-2-1.22c-4.06-.93-8.19-.13-12.29-.43-1.26-.3-1.93-1-1.66-2.38,2.49-.13,3.78-2.44,5.9-3.24,2.27.38,4.2-.88,6.31-1.3,5.3,1.35,11.47.21,15.33,5.71,1.27,1.83,1.33,4.45,3.66,5.56,1.23,2,2.62,3.93,1.24,6.4-1.19,2.35-3.88.76-5.47,2.09a1.43,1.43,0,0,1-1.22-.24c-.95-1.71-2-3.32-3.13-4.93l0,.09C557.08,393.22,554.16,391.92,551.33,390.53Z"/><path class="cls-27" d="M618.44,408.38c-3-1.12-6.05,1.82-7.52-1.3s2.34-3.94,3.54-5.93,3.39-3.53,5.19-5.21c1.15-1.08,2.46-1.2,3.43.12.85,1.16.12,2.13-.8,3-1.18,1.13-2.26,2.36-3.5,3.68,1.87,1.13,3.37-.06,4.89-.07,1.27,0,2.79-.74,3.51.89.64,1.44-.07,2.37-1.38,3.24a19.81,19.81,0,0,0-3.09,3.22c2.17.77,4-.2,6-.42,1.29-.15,2.33.27,2.46,1.78a1.84,1.84,0,0,1-1.67,2.08c-3.89.86-7.78,1.75-11.68,2.58a2.7,2.7,0,0,1-3-1.36c-.71-1.1,0-1.88.63-2.65C616.33,410.89,617.28,409.8,618.44,408.38Z"/><path class="cls-28" d="M520.06,357.38c-4.09-.24-8-4.65-7.72-8.81a8.12,8.12,0,1,1,16.23.76C528.33,353.63,524.11,357.62,520.06,357.38Z"/><path class="cls-29" d="M459.64,371.32a26.75,26.75,0,0,1,1.6,3.43,2.15,2.15,0,0,1-1.35,2.81c-1.2.54-1.78-.11-2.4-1-1.8-2.55-3.69-5.05-5.49-7.6-1.05-1.5-2.32-3.2-.64-4.88,2.24-2.24,4.87-4.2,8.27-3.71a4.24,4.24,0,0,1,3.79,4.53c-.1,2.18.33,3.4,2.6,3.91,1.36.3,2.48,1.36,1.74,2.93a2.2,2.2,0,0,1-3.28,1.09A41.48,41.48,0,0,0,459.64,371.32Z"/><path class="cls-30" d="M426.73,407.6c2.76-.76,3-6.2,6.16-3.75,2.61,2-.95,4.51-1.79,6.83-1.56,4.32-4.06,3.44-6.92,1.74-.85-.51-1.59-1.2-2.46-1.68-6.74-3.74-7.22-6.56-2.12-12.21.58-.65,1-1.37,1.94-1.19a3.76,3.76,0,0,1,1.56.91c-1.86,4.12,8,2.49,3.81,7.72C426.66,406.28,426.8,406.91,426.73,407.6Z"/><path class="cls-31" d="M420.5,428c-1.65-.45-3-1.09-3.62.83s.68,2.12,2.1,2.49c1.71.46,3.19,1.46,2.23,3.56-.83,1.82-2.31,1.25-3.83.76-2.83-.93-5.73-1.64-8.59-2.44-1.72-.48-3.28-1.23-2.68-3.39.55-2,2.12-1.68,3.66-1.25,1.13.31,2.49,1.49,3.09-.76.51-1.9-.74-2.18-2.05-2.66s-3-1.3-2.13-3.2c.76-1.72,2.35-1.52,3.87-1,2.83.93,5.66,1.88,8.5,2.77,1.46.46,3.05.78,2.62,2.85S421.61,428.22,420.5,428Z"/><path class="cls-29" d="M447.61,538.1c.38,3.59-1.82,5.43-5.16,5.65-4.49.31-10.15-5.67-10.17-10.54,0-3.37,1.39-5.77,5.29-5.68C442.8,527.65,447.58,532.57,447.61,538.1Z"/><path class="cls-32" d="M618.19,522.94c1.23,1.13,2.38,1.74,2.8,2.67.79,1.73-.11,4.09-1.58,4-3.61-.17-5.73-3.48-8.45-5.48-2-1.47-.57-3.27.42-4.8q1.22-1.87,2.57-3.66c2.51-3.33,5.26-3.23,7.2.51a1.75,1.75,0,0,0,2.23,1.15c1.27-.2,3-.84,3.28,1s-1.17,3-2.88,3.5S620.55,522.51,618.19,522.94Z"/><path class="cls-31" d="M628.09,430.28c1.88-3.09,4.79-3.67,7.78-2.46,3.19,1.29,2.18,4.87,3,7.41.38,1.15-.65,2.26-2.07,2.2-2.69-.13-2-2.62-2.7-4.11-1.55.09-1.55.09-1,2.11-.6,4-3.09,6.21-6.83,5.1s-4.41-5.44-4.42-8.61c0-2.68,2.63-2.16,4.43-.67.53.24.43,1.08,1.12,1.18A4.75,4.75,0,0,1,628.09,430.28Z"/><path class="cls-33" d="M520.47,368.62c3.4-1.83,7-2.07,10.79-1.69-5.53-3.81-12-1.85-18-2.51,8-2.13,16-.17,24,.47,9.72.77,17.9,6.18,27,8.66-.39,2.46-2,1.12-3.19,1-6.14-1.69-12.22-3.64-18.43-5C535.38,367.93,527.9,368.49,520.47,368.62Z"/><path class="cls-34" d="M601.55,537.66c3.53-3.84,4.76,3,7.62,1.56a2.53,2.53,0,0,1-.36,2.75c-2,2.18-4,4.36-6,6.45a2,2,0,0,1-2.7,0c-.27-.19-.47-.47-.72-.68-6.53-5.57-6.12-10.52,1.21-15,.74-.45,1.52-.91,2.19-.17a2.18,2.18,0,0,1,.49,1.78A23.84,23.84,0,0,1,601.55,537.66Z"/><path class="cls-35" d="M606.1,376.6c1.66,0,3,1,2.42,2.71-1.52,4.19-3.44,8.24-5.24,12.33-.5,1.13-1.53,1.13-2.54.85a1.7,1.7,0,0,1-1.17-2.36c1.08-3.8-.93-4.82-4.17-4.69-1.26.06-2.4,0-2.83-1.37-.5-1.58.43-2.61,1.75-3.13C598.17,379.45,602.07,378.08,606.1,376.6Z"/><path class="cls-30" d="M437.59,379.5c3.42,1.15,6.84,2.26,10.24,3.47,1.12.4,2.18,1.1,1.87,2.53a2.12,2.12,0,0,1-2.53,1.83c-4.11-.56-5.28,1.45-4.55,5.13a2.19,2.19,0,0,1-1.23,2.46,1.84,1.84,0,0,1-2.26-.34c-1.81-1.42-5.28-12.94-4.58-15.23C435.47,381.33,436.57,379.58,437.59,379.5Z"/><path class="cls-36" d="M580.6,367.59c-2,1.14-1.92,6.41-5.42,3.77-2.7-2,.8-4.5,1.81-6.68a27.64,27.64,0,0,1,1.65-2.45c3.25-5.38,4-5.44,9-1.75,2.11,1.58,3.19,3.28,2.54,5.86a5.29,5.29,0,0,1-3.91,4.09c-2.58.66-4-1-5.14-2.94a4.87,4.87,0,0,1,2.35-1.93A5.9,5.9,0,0,0,580.6,367.59Z"/><path class="cls-37" d="M430,514.34a5.51,5.51,0,0,1-5.23,5.56c-3.66.45-9.33-5.89-9.46-10.19,0-1.17,7.12-6,8.84-6S430,511,430,514.34Z"/><path class="cls-38" d="M549.33,572.91c0,4.49-3.72,2.73-5.88,3.2-1.92.42-4.69,2-5.93-.29-1.64-3-1.71-6.73-1.37-10.16.18-1.77,9.74-3.75,11-2.39,1,1.07.75,2.13-.77,2.58s-3.17.88-4.76,1.31c.48,2.15,1.85,1,2.95.8,2,.08,4.42-.06,1.93,3-1,1-2.36.94-3.6,1.23A11.88,11.88,0,0,1,549.33,572.91Z"/><path class="cls-39" d="M545.87,349.12a21.6,21.6,0,0,0,3.39,1.35c1.61.3,2.38,1.13,2.08,2.72s-1.64,1.44-2.76,1.32c-2.26-.24-4.25-.48-4.55,2.76-.12,1.32-1.65,1.54-2.83,1.15s-1.65-1.38-1.31-2.75c.55-2.23,1-4.5,1.4-6.76.38-2-.06-4.74,2.58-5.32,3.36-.75,6.33,1.2,9.34,2.4.25.1.24,1.21.13,1.81-.18,1-1,1.14-1.89,1.07C549.86,348.75,548.29,347.85,545.87,349.12Z"/><path class="cls-40" d="M504.42,499.9c-.76,1.87-3.19,1.61-4.42,3.65l4.57-.39a149.66,149.66,0,0,1-28.78,13.52C483.2,507.42,494.57,505,504.42,499.9Z"/><path class="cls-41" d="M490.48,567.9c-1.63-2.63-1.36-5,1.74-5.9a9.73,9.73,0,0,1,8.89,1.65.57.57,0,0,1,.12.45c-4.45,2.26-.29,5.2-.64,7.76a3.94,3.94,0,0,1-.86,1.75c-1.51,2-3.72,1.73-5.41.84-2.09-1.12-6.33.22-5.73-4.42,2-1.69,3.92-.26,5.94.16C493.13,569.43,491.27,569.58,490.48,567.9Z"/><path class="cls-42" d="M464.45,554.07c1.21,3,.24,5.39-2.53,6.53-2.31,1-7.59-4.38-7.9-7.64-.37-4,1.94-5.87,5.44-6.28,2.9-.34,5.58,1.18,7.72,2.86s.68,2.82-1.4,3.22c-1.84-.09-3.7-.82-5.74.12C461.49,554.07,463.48,552.16,464.45,554.07Z"/><path class="cls-43" d="M570.42,401.35c2.2,4,2.88,8.55,4,12.93.1,1.8.39,3.58.43,5.38s.18,3.55-2,3.91a4.33,4.33,0,0,1-4.62-2.16c-1.83-2.91-1.63-6.33-2.54-9.46-.38-2.05,0-4.19,1.66-5.28,2-1.3,1.31-3.09,1.65-4.72.08-.22.17-.43.26-.65A.91.91,0,0,1,570.42,401.35Z"/><path class="cls-44" d="M520,573c-1.62.06-3.44-.3-3.44,2.3a2.08,2.08,0,0,1-2.55,2.28c-1.72-.27-2.48-1.46-2.23-3.24.28-2,.53-3.92.78-5.89.18-1.46.11-3.21,2.06-3.44,2.23-.27,2.1,1.52,2.24,3,.11,1.23,1,1.62,2.07,1.59s1.4-.72,1.43-1.62c.11-3.36,2.13-2.48,4-1.85,1.24,2.47-.07,5.2.79,7.7-.27,1-.53,2-.8,3C519.79,579.14,521.94,573.72,520,573Z"/><path class="cls-44" d="M483.8,350.27c-4.63,4.31-.29,8,.73,11.92a1.85,1.85,0,0,1-1.15,2.41,2.16,2.16,0,0,1-3-1c-.73-1.46-1.16-3.06-1.82-4.56-.88-2-1.1-4.6-4.49-4-1.35.24-2-1-1.85-2.32.24-1.79,8.81-5.3,10.25-4.2A8.5,8.5,0,0,1,483.8,350.27Z"/><path class="cls-45" d="M540.17,428.19c8.53-4.21,17.39-6.6,27-4.74A12.35,12.35,0,0,1,576,427.2c1.47.65,3.27.94,3.31,3.11-2,1.47-3.16-1.36-4.95-1-2.78-.78-5.41-1.22-7.44,1.67a3.93,3.93,0,0,1-3.17,1.22c-1.42,0-2.76-.31-3.24-1.77-.54-1.65,1-1.77,2-2.24a2.19,2.19,0,0,0,1.61-1.65c-4-1.35-7.84-1.78-11.65.46a62,62,0,0,1-5.8,2.69C543.85,431,541.92,430.5,540.17,428.19Z"/><path class="cls-44" d="M585.66,549.16c-3.91,3.12.09,5.49,1.21,8.17.76,1.83.16,2.93-1.32,3.66s-2.36-.42-3.06-1.64c-1.34-2.35-2.12-5.33-6-4.44-1.23.27-1.58-1.44-1-2.15,2.22-2.77,5.38-4.26,8.63-5.43C584.88,547,585.48,547.92,585.66,549.16Z"/><path class="cls-46" d="M467.74,431.22c-2.94-5.19-4.48-10.66-3.6-16.76a22.93,22.93,0,0,0-3.3,20.08,12,12,0,0,1,.62,4.84c-5.77-11.54-3-21.74,5-31.1,1.65-.1,2,.53,1,1.84C464.23,417.21,466.08,424.21,467.74,431.22Z"/><path class="cls-47" d="M570.22,567.6c-1.41,2.59-4.2,2.17-6.06,3.43a1.83,1.83,0,0,1-2.91-.71,25.36,25.36,0,0,1-3.08-8.86,1.87,1.87,0,0,1,1.28-2.36c1-.3,2.14-.32,2.56.8,1.26,3.39,2.06,7.14,7.1,6.33C569.4,566.19,569.86,567.14,570.22,567.6Z"/><path class="cls-48" d="M584.44,534.23a6.81,6.81,0,0,0-1-3.74c-1.18-1.59-.16-3,1.05-3.77,1.73-1.07,1.4.87,2,1.67,1.59,2.17,2.16-.31,2.56-1,2.83-4.58,6.28-8.84,8-14,.44-1.27.71-2.19,2.26-1.37C595.47,520.19,591.49,528.23,584.44,534.23Z"/><path class="cls-49" d="M566.36,411.35c.52,2.69.93,5.4,1.59,8a4.1,4.1,0,0,0,4.88,3.19c2.28-.49,1.71-2.93,1.19-4.59a4.31,4.31,0,0,1,.37-3.72c1.69,3.23,1,6.7,1,10.1-3.22,1.45-5.71.19-7.9-2.14q-3.48-10.42-6.95-20.86c.24-.51.51-.5.8-.05l1,.06c1,.71,1.31,1.86,1.83,2.88A19.44,19.44,0,0,1,566.36,411.35Z"/><path class="cls-50" d="M566.34,393.42c-1.35-.8-4.25.69-3.37-3.33.65-2.94-4.16-5.49-7.9-5.16-2.85.26-4.63-3.1-7.66-2.54l0-.56c8.71-1.87,15.2,1.7,19,10.46q.42.4.24.78C566.55,393.3,566.44,393.42,566.34,393.42Z"/><path class="cls-51" d="M517.37,508.08c1.76-.8,2.3,4.44,4.69.88,1.5-2.22,4.7-3.9.73-6.91-1.15-.87-1.55-3.17-1.36-5,5.3,4.72,6,8.35,2.52,12.53C520.14,514.08,519.65,514,517.37,508.08Z"/><path class="cls-52" d="M455.56,406.37l1.09,1.07c-1.61,2.67-2.81,5.61-5.09,7.85-.32-.9-2.57-.16-1.8-1.64C451.19,410.88,451.34,407,455.56,406.37Z"/><path class="cls-53" d="M442.7,467.14c-1.19.47-2.49,1.52-3.5-.11-.84-1.37.07-1.91,1.34-2.49,2.19-1,.77-2.81.57-4.29-.52-3.7-1.49-7.42.62-11Q442.21,458.21,442.7,467.14Z"/><path class="cls-54" d="M552.44,553.07c1.62-1,.57-3.52,2.46-4.4,1.14-.53,2.49-3.21,2.92.7.25,2.24,2.49-.36,3.62.59C558.89,552.28,555.5,552.21,552.44,553.07Z"/><path class="cls-55" d="M464.45,554.07c-1.1-.15-2.23-.65-3.16.47-.64.77-1.39,1.53-2.42.65a2.39,2.39,0,0,1-.65-2.68,2.31,2.31,0,0,1,2.18-1.68,8.62,8.62,0,0,1,5.38,1.93Z"/><path class="cls-56" d="M443.47,518.06c2.52,2.27,8,2.27,6.11,7.92C447.15,523.65,444.66,521.36,443.47,518.06Z"/><path class="cls-57" d="M571.38,379.34a15.57,15.57,0,0,1-7.2-3.75,2.06,2.06,0,0,1,1.26-1.27c2.66.84,5.27,1.79,7.14,4C572.44,379,571.83,379.07,571.38,379.34Z"/><path class="cls-58" d="M445.54,479.18c-1.57,1-.45,2.84-1.92,4.77-1.8-4.39.89-8.26,0-12Q444.59,475.58,445.54,479.18Z"/><path class="cls-59" d="M535.43,386.5l1,1.94c.54.37.53.74,0,1.1-1.84,1-3.6,2.18-5.84,1.92a.88.88,0,0,1-1.17.14c-.61-1.11.31-1.59.91-2.21Z"/><path class="cls-60" d="M527.41,490.12l-.1-2.42c1.28-2.66,3.12-4.09,6.19-2.82a1,1,0,0,1,0,1.39C531.37,487.41,530.23,490.09,527.41,490.12Z"/><path class="cls-61" d="M567.53,422.24c2.52,1.13,5,2.35,7.9,2.14.19.94.38,1.88.56,2.82-3-1.14-6.15-1.88-8.83-3.76C567.28,423,567.41,422.64,567.53,422.24Z"/><path class="cls-62" d="M603.48,476c-3.16.27-3.94-1.84-2.17-5.89C603.24,471.64,603.26,473.87,603.48,476Z"/><path class="cls-63" d="M580.6,367.59c.22-.44.34-1,.69-1.28,1.13-.92.69-3.61,3.19-2.95,2,.54,2.17,2.63.22,3.15-.76.2-1.6.07-2.36.24a4.68,4.68,0,0,0-1.24.74l-.23.15Z"/><path class="cls-62" d="M604.29,487.14c1.68-2.18-2-5.26,1.2-7.19.9.48.88,1.36,1,2.2C605.05,483.52,608.67,487.06,604.29,487.14Z"/><path class="cls-49" d="M566.34,393.42c0-.38.06-.75.08-1.13,2.73,2.41,2.69,6,4,9.06l-1.07,0a2.33,2.33,0,0,1-2-2C568.41,397.16,567.13,395.33,566.34,393.42Z"/><path class="cls-64" d="M529.32,391.35l1.24.11c-.42,2.46-3.6,1.78-4.38,3.84-1.3.92-1.95.63-1.85-1,.38-.6.76-1.2,1.13-1.8C526.55,391.42,527.57,390.16,529.32,391.35Z"/><path class="cls-65" d="M533.49,486.27l-.29-1.58a1.07,1.07,0,0,1,.3-1.61l4.48.33A5.52,5.52,0,0,1,533.49,486.27Z"/><path class="cls-66" d="M479.48,373.38c-.86,2.31-3,3.1-5,4.08-.32.48-.66.48-1,0l-1.24-.14C474.3,375.31,477,374.55,479.48,373.38Z"/><path class="cls-67" d="M490.48,567.9l6.54,2.51c-3.49,1.23-5.9-1.48-8.43-.38Z"/><path class="cls-40" d="M504.54,503.19c1.47-2.9,3.64-4.13,6.86-2.9C508.89,500.73,507.25,503.22,504.54,503.19Z"/><path class="cls-68" d="M549.33,572.91h-7.7c1.48-1.92,3.12-2,4.82-2C547,572.16,549,571.36,549.33,572.91Z"/><path class="cls-46" d="M463.35,444.47c.9-.23,1-1.89,2.23-1.36.84.38.74,1.25.51,2.1-.29,1.07-.43,2.19-.64,3.29Z"/><path class="cls-69" d="M579.27,384.53l-4.88-3.1a2.2,2.2,0,0,1,2-1l4.13,2.9A1.44,1.44,0,0,1,579.27,384.53Z"/><path class="cls-1" d="M529.32,391.35l-3.86,1.14c.15-3.31,2.59-3.05,4.84-3.1Z"/><path class="cls-70" d="M467.41,410.12a1.85,1.85,0,0,0-1-1.84,4.7,4.7,0,0,1,3.16-3.76,1.63,1.63,0,0,1,.06,2.17C468.45,407.55,468.94,409.49,467.41,410.12Z"/><path class="cls-71" d="M628.09,430.28c.21,1.88.43,3.77.72,6.33-2.23-1.68-1.84-3.75-2.47-5.36Z"/><path class="cls-72" d="M584.28,387.44c2.35-.15,3.24,1.79,4.53,3.17-2.41.21-3.56-1.35-4.47-3.23Z"/><path class="cls-73" d="M579.27,384.53l1.21-1.2a9.33,9.33,0,0,1,3.8,4.11l.06-.06A11.19,11.19,0,0,1,579.27,384.53Z"/><path class="cls-59" d="M547.39,381.83c0,.19,0,.38,0,.56-2,.54-3.76,2.62-6.08.87A11.94,11.94,0,0,1,547.39,381.83Z"/><path class="cls-74" d="M576.35,380.43a2,2,0,0,1-2,1l-3-2.09,1.2-1Z"/><path class="cls-58" d="M447.8,486.06c-2.7-1.65-2.13-4.37-2.25-6.86C447.19,481.19,447.52,483.62,447.8,486.06Z"/><path class="cls-75" d="M474.53,459.2c.61,1.44,2.31,2.4,1.86,4.29-1.47-1.59-3.24-2.95-4.1-5l.32-.35C473.65,457.77,474.09,458.48,474.53,459.2Z"/><path class="cls-76" d="M520,573c2.14.52,1,4.79,4.4,3.85C520.92,578.25,520.92,578.25,520,573Z"/><path class="cls-60" d="M520.42,495.05c.58-2.87,3.32-2.8,5.23-3.87C524.74,493.59,522.13,493.72,520.42,495.05Z"/><path class="cls-77" d="M525.2,573.81c-1.59-2.43-.49-5.14-.79-7.7C526,568.54,525,571.24,525.2,573.81Z"/><path class="cls-78" d="M438.36,511.11a4.34,4.34,0,0,1,3.21,5Z"/><path class="cls-79" d="M469.63,406.69l-.06-2.17,1.92-1.24c.44.88,1.31,1,2.12,1.13A6.89,6.89,0,0,1,469.63,406.69Z"/><path class="cls-46" d="M461.41,439.31c1.85,1.25,2.28,3.05,2,5.13C461.64,443.14,461.49,441.24,461.41,439.31Z"/><path class="cls-80" d="M524.33,394.29a1.77,1.77,0,0,0,1.85,1c-.73,1.42-2.16,1.61-3.49,2A3.39,3.39,0,0,1,524.33,394.29Z"/><path class="cls-81" d="M591.62,393.63a2.69,2.69,0,0,1,2.34,3C592.39,396.43,591.75,395.55,591.62,393.63Z"/><path class="cls-82" d="M633.16,435.43c-.63-1.31-2.15-2.84-.22-3.93,1.06-.59,1.3.84,1.17,1.82C633.79,434,633.47,434.73,633.16,435.43Z"/><path class="cls-83" d="M439.52,409.19c.3,1.61,1.17,3.58-1.91,3.17C437.47,410.84,438.43,410,439.52,409.19Z"/><path class="cls-45" d="M590.58,443.17c-1.71-.7-3.44-1.39-2.3-3.81C589.86,440.15,590,441.77,590.58,443.17Z"/><path class="cls-84" d="M587.24,438.28a2.75,2.75,0,0,1-2.84-3.19C586.18,435.41,586.7,436.86,587.24,438.28Z"/><path class="cls-85" d="M437.59,379.5c-1.06.82-2.17,2.84-3-.15C435.62,378.19,436.6,379,437.59,379.5Z"/><path class="cls-62" d="M605.54,480c-2.23-.54-2.36-2.18-2.11-4A8.68,8.68,0,0,1,605.54,480Z"/><path class="cls-86" d="M565.44,374.32l-1.26,1.27c-1.1-.11-2.25-.06-3.06-1,1.11-.2,2.39.15,3.19-1Z"/><path class="cls-87" d="M544.52,568a3,3,0,0,1-3.51.53c-.51-.28-.23-1.12.56-1.33Z"/><path class="cls-88" d="M526,541.35c0,1.14-.61,1.59-1.22,1.42a5.28,5.28,0,0,1-4.16-4.32c-.16-.92.72-1.44,1.64-1.4C525.23,537.19,524.39,540.44,526,541.35Z"/><path class="cls-89" d="M473.53,377.48c.33,0,.67,0,1,0,.22,2.66,1.78,1.31,3,1,.94-.29,1.22.08,1,1,.36,1.05,2.74,1.47,1.16,3.07-1.82,1.84-2.74-.78-4.15-1.07C473.82,380.65,471.85,380,473.53,377.48Z"/><path class="cls-90" d="M576.24,538.91c-.51,1.11-1.21,1.79-1.68,1.36-1.4-1.26-3.65-1.79-4-4-.12-.77.67-1.2,1.34-1.08C574.24,535.6,573.62,539,576.24,538.91Z"/><path class="cls-48" d="M593.3,517.2c-.27.53-.37,1.15-.67,1.26-.74.28-1.17-.26-1.13-.94a1.28,1.28,0,0,1,.72-1C592.46,516.48,592.87,516.93,593.3,517.2Z"/><path class="cls-56" d="M453.73,521.88c.31.81-.19,1-.63,1a1.57,1.57,0,0,1-1.08-.62c-.27-.51.16-.91.67-.86A3.08,3.08,0,0,1,453.73,521.88Z"/><path class="cls-91" d="M540.17,428.19c4.65,2.13,8.12-.18,11.86-2.67,4-2.67,8.62-1,13-.57,1.07.12,1.34,1.34,1.28,2.41a1.86,1.86,0,0,1-1.85,1.91c-1.07.15-2.3-.42-3.51.9,2.33,1.85,5,1.34,6-.59,2.61-5,4.9-2.66,7.47-.29l0,3.07a1,1,0,0,1-1.16.09s0,.41,0,.41l.37.19a18.25,18.25,0,0,0,3.22,2.63c1.23,1.14,2.21,2.51,3.37,3.72a5.15,5.15,0,0,1,.63,1.09c0,.95.82,1.43,1.24,2.15a17.31,17.31,0,0,0,1.61,3.63c.93,2.89,2.86,5.5,2.48,8.76a7.78,7.78,0,0,1-1.46,3.28,2.3,2.3,0,0,1-2.66-.05c-3.66-1.79-5.24.64-6.7,3.31-1.25,2.53-3.58,4.17-5.27,6.33-2.77,2.94-5.36,6.07-9,8-6.58,1.58-10.69-1.75-13.87-6.93a106.87,106.87,0,0,0,1.71-15.56,5,5,0,0,1-.11-1.33c.25-1.56,1.34-2.72,1.94-4.12a33.78,33.78,0,0,1,1.88-4.05,9.71,9.71,0,0,0,1.23-2.84c.23-.37.41-.77.65-1.14-.18-.07-.34.07-.47.47a14,14,0,0,0-1,2.12,11.56,11.56,0,0,1-2.3,3.28c-.79.55-1.6,1-2.57.42-2-2.88-5-2.43-7.46-1.36s-1.74,3.52-1.4,5.63a4.85,4.85,0,0,1-.18,1.93c-1,2.59-1.95,5.18-1.62,8.05-.14-2,.28-3.77,2-5a10.2,10.2,0,0,1,4-1.75,2,2,0,0,1,1.32.57c1,1.68.55,3.27-.33,4.83-1,1.32-1.43,2.71-.53,4.27a2.19,2.19,0,0,1-1.52,2.73c-3.44.62-2.69,4.69-5.3,6.31-2-2.46-1.29-6.34-4.32-8.35-.82-.54.12-2,.67-3.09,2.34-4.67,1-8.44-3.15-11.23a5.91,5.91,0,0,1-2.95-5.39c-1.08,3.44-4.13,4.9-6.49,5.47-3.76.91-4.78,3.29-4.82,6.13,0,2-1.12,3.24-2.15,3.29-1.75.07-1.62-1.88-1.26-3.06.44-1.46-.38-2.15-1.15-3-.61-.64-1.22-.38-1.59.23a2.66,2.66,0,0,0-.12,3.12c2.53,4.53-3.64,4.67-4.2,7.73-1.16-.54-.94-3-3.09-2.18a2.9,2.9,0,0,1-.71-1.11c-.09-2.64,1.32-5.09,1-7.76a3.3,3.3,0,0,1,.73-1.11c4.92-1.3,9.78-2.86,14.76-3.83s8.28-4,8.75-8.32c.65-5.86,3.81-8.33,8.66-10C537.19,429.57,538.66,428.83,540.17,428.19Z"/><path class="cls-92" d="M533.5,483.08l-.3,1.61c-2.51-.07-4,1.9-5.89,3-3.54,1.47-6.32,5.4-10.94,3.4-2.67-4-6.79-6.67-9.25-10.83-.5-.83-1.35-1.47-1-2.6a1.53,1.53,0,0,1,2.49-.57C516.5,480.68,524.93,482.17,533.5,483.08Z"/><path class="cls-93" d="M582.3,457.29c.32,1.1,1.13,1.06,2,.88a2.14,2.14,0,0,1,1.11,3.19c-1.2,1.3-2.32,2.69-3.64,3.86-1,.87-2.08,1.08-2.28-.8a2.31,2.31,0,0,0-.06-2.15c-.25-.35-.75.73-1.37.75l-1.84.85c-1.3,2.73-3.07,4.95-6.18,5.74-1-.55-1.57-1.26-.67-2.36l5-5.9C576.34,458.64,578.19,455.77,582.3,457.29Z"/><path class="cls-94" d="M503.47,452.21v1c-.29,2.56-1.2,5-1.16,7.62l.17,1.33c-2.06.07-2.9,1.4-3.28,3.19-.31.28-.55.22-.74-.13-.51-1.2-1.07-2.38-1.5-3.61C495,455.94,497.23,452.67,503.47,452.21Z"/><path class="cls-95" d="M569.38,467.25a2,2,0,0,0,1.27,2,3,3,0,0,1-1.74,2.75l-.66.72c-3.53,3.63-6.83,7.78-12.89,5.86a1.57,1.57,0,0,1-1.35-1.71c1.88-2.82,5.2,0,7.33-1.85Z"/><path class="cls-96" d="M542.4,466.18l1-3c-1-1.33-.69-2.66,0-4a8.23,8.23,0,0,0,1-5c0-2.16,1.05-3.15,3.18-3,1.07,1.41.57,2.82,0,4.24a25.58,25.58,0,0,0-1.42,4,10.51,10.51,0,0,0,0,6.74c-.43,2.29,2.45,3.81,1.47,6.22-.91,1.1-1.91,1.81-3.32.79C545.36,470.37,542.07,468.79,542.4,466.18Z"/><path class="cls-91" d="M544.4,473.16l3-1c3,.64,4.87,3,6.93,5l1,1.07c.35.2.47.4.35.61s-.22.31-.34.31C551,478.49,547.18,476.76,544.4,473.16Z"/><path class="cls-97" d="M568.91,472l1.74-2.75,5.58-5.42c-.51,2.14-.14,4,2.17,5.37l-5.59,3,1.45-3.52C571.85,469.29,571.08,471.9,568.91,472Z"/><path class="cls-97" d="M555.38,479.15c0-.31,0-.61,0-.92,5.64,1.33,8.92-2.87,12.87-5.47-1.68,4.23-5,6.31-9.21,7.68C557,481.09,556.45,480,555.38,479.15Z"/><path class="cls-98" d="M585.22,455.2c.55-3.42-2.25-5.87-2.62-9,.3-.92.74-1.54,1.83-1,2,1.92,2.09,4.61,2.76,7.06C586.1,453,588,455.6,585.22,455.2Z"/><path class="cls-99" d="M585.22,455.2l2-2.94a11.31,11.31,0,0,1-1.77,9.1l-1.11-3.19C584.43,457.13,583.84,455.86,585.22,455.2Z"/><path class="cls-100" d="M501.66,471c2.27,1.07,5.09,1,6.78,3.26a.8.8,0,0,1-.24,1.27c-2.59,1.28-4.44,0-6.15-1.76C501.5,472.93,500.8,472.08,501.66,471Z"/><path class="cls-101" d="M501.66,471l.92,1.92a1.08,1.08,0,0,1,0,1.32,6.39,6.39,0,0,1-5.46-4.89c1.77-1,1.15-2.66,1.31-4.12a4.58,4.58,0,0,0,.74.13l0-.05c1.75.82,0,2.8,1.28,3.78Z"/><path class="cls-102" d="M502.34,474.48l.24-1.54a7.54,7.54,0,0,0,5.77,2.59l.13.62a1.56,1.56,0,0,0,.1,1,2.34,2.34,0,0,0-2.23,1.34C503.89,478.25,502.94,476.54,502.34,474.48Z"/><path class="cls-97" d="M567.14,479.52c.31-1,.32-1.36.47-1.42,1.73-.68,1.56-3.41,3.77-3.47.26,0,.83.76.75,1C571.34,477.78,569.45,478.43,567.14,479.52Z"/><path class="cls-45" d="M576.39,434.26c3.83.26,4.74,2.88,4.91,6.09-.39.35-.73.33-1-.13l.07.07a53.71,53.71,0,0,0-4.26-4.91A.86.86,0,0,1,576.39,434.26Z"/><path class="cls-103" d="M584.43,445.2l-1.83,1a5.52,5.52,0,0,1-1.21-4l.12-.4.78-.28Z"/><path class="cls-104" d="M508.48,476.15a1.16,1.16,0,0,1-.13-.63l.09-1.24,5.49,1.17-.12.7Z"/><path class="cls-105" d="M524.88,475.75c-3.53.6-5.71.87-8.22-.09A13.71,13.71,0,0,1,524.88,475.75Z"/><path class="cls-106" d="M576.39,434.26a2.67,2.67,0,0,1,0,.8c.52.53.46,1-.17,1.37l-3.8-3.16a1.22,1.22,0,0,1,0-1.93l2,1A3.23,3.23,0,0,0,576.39,434.26Z"/><path class="cls-62" d="M600.36,489.16c-3.83-1.39-1-2.43-.05-3.93,1.26,1.62-.31,2.72,0,3.94Z"/><path class="cls-107" d="M578.07,463a3.46,3.46,0,0,1,2.56-3.24,5.37,5.37,0,0,1-1.13,4.64Z"/><path class="cls-94" d="M500.51,469.11c-1.34-1-1.09-2.44-1.28-3.78C502,465.79,500.48,467.72,500.51,469.11Z"/><path class="cls-108" d="M580.29,440.22l1,.13v1c.25.12.35.26.31.44s-.1.29-.17.29l-.06.11A2.09,2.09,0,0,1,580.29,440.22Z"/><path class="cls-108" d="M581.45,442.08a3.76,3.76,0,0,1-.14-.73l1,.16Z"/><path class="cls-109" d="M474.71,441.84c.41-5.22,6.37-10.37,13-11.25,5-.67,7,.92,9.1,7.51a38.94,38.94,0,0,1,1.5,6.73c.3,2.31.29,5.19-1.83,6.25a6.24,6.24,0,0,1-7.73-1.23c-3.35-3.94-8.52-3.15-12.53-5.27C474.45,444.38,475.37,442.67,474.71,441.84Z"/><path class="cls-110" d="M495.5,423.4c0-3.79,4-8.83,7.87-8.93,2.87-.07,3.69,1.86,3.77,4.17.18,5.11-4,10.27-8.15,10.16C496.17,428.73,495.45,426.86,495.5,423.4Z"/><path class="cls-110" d="M485,418.08c.52-3.67.32-8.12,5.22-8.35,4.12-.2,4.72,3.56,4.85,6.74.17,4.14-3.11,9-5.77,8.68C485,424.65,485.49,421,485,418.08Z"/><path class="cls-111" d="M499.38,437.1c.09-4.82,4.12-8.59,8.14-8.44,2.69.09,3.73,1.79,3.7,4.24-.05,3.76-4.31,8.1-7.87,8.15S499.24,439,499.38,437.1Z"/><path class="cls-112" d="M482.52,425.25c.11,2.91-.23,6.24-4.63,6.22-4.25,0-4.81-3.56-5.06-6.71-.28-3.51,2.88-7.51,5.36-7.32C481,417.64,482.52,420.31,482.52,425.25Z"/><path class="cls-46" d="M474.71,441.84l1.54,2.74c.17,4.91,4.43,7.24,6.92,10.63s5.49,6.09,8.28,9.11a1.18,1.18,0,0,1,.07,1.85c-4.48-4.17-8-9.28-13-12.95a3,3,0,0,1-2-3c-1.21-1.74-1.34-4.58-4.5-4.35a2.36,2.36,0,0,1-1.16-.52c2-5.43-6.19-8.59-3.19-14.21,1.41,2.9,2.69,5.88,4.31,8.66C472.49,440.67,472.39,443.11,474.71,441.84Z"/><path class="cls-113" d="M502.34,474.48a12.24,12.24,0,0,0,4,4c3,4.49,7.85,7.52,10,12.66a244.8,244.8,0,0,1-20.92-21.81c.27-.49.57-.51.91-.08l.79.16A20.17,20.17,0,0,0,502.34,474.48Z"/><path class="cls-50" d="M551.33,390.53c5.68,1.31,7.18,2.66,6.76,6.11Z"/><path class="cls-114" d="M536.4,389.54c0-.37,0-.74,0-1.1,4.31.43,8.76-1.17,13,.87Z"/><path class="cls-115" d="M496.36,469.21l-.91.07-3.93-3.11c0-.62,0-1.24-.07-1.85A17,17,0,0,1,496.36,469.21Z"/><path class="cls-50" d="M561.38,401.33a7,7,0,0,1-.8.05,8.4,8.4,0,0,1-2.53-4.83A6.88,6.88,0,0,1,561.38,401.33Z"/><path class="cls-116" d="M476.53,450.22l2,3a12.22,12.22,0,0,0-4,6l-1.92-1.1c.26-2.19-1.28-3.52-2.94-5.61C472.82,453.23,475.31,453.16,476.53,450.22Z"/><path class="cls-66" d="M478.52,379.45l-1-1c.6-1.11,1.18-2.28,2.63-2.38.25,0,.81.67.77,1A2.38,2.38,0,0,1,478.52,379.45Z"/><path class="cls-117" d="M513.62,403.81c-.15,2.13,3.84,3,1.68,5.48-.73.82-1.76.62-2.62-.24C510.68,407,512.54,405.54,513.62,403.81Z"/><path class="cls-43" d="M567.36,399.39a3.43,3.43,0,0,1,2,2h0c-1.44,2.1-1.78,6.41-6,3-1.16-.72-1-1.9-1-3a5.06,5.06,0,0,0,.38-3.57C564,399.83,565.33,400.92,567.36,399.39Z"/><path class="cls-118" d="M524.2,348.94c-.17,2.28-1.41,3.6-3.74,3.58s-3.86-1.14-3.78-3.54a3.57,3.57,0,0,1,3.73-3.74C522.84,345.17,523.86,346.71,524.2,348.94Z"/><path class="cls-119" d="M459.53,365.79c-.52.92-.68,2.25-2,2.43-.92.14-1.46-.77-1.66-1.54-.36-1.38,1-1.45,1.76-1.84S459.24,364.73,459.53,365.79Z"/><path class="cls-120" d="M423.63,403.79a6.94,6.94,0,0,1-1.45,2c-.44.31-1.3-.37-1.14-1.09.19-.87.26-2,1.4-2.28C423.05,402.27,423.71,402.54,423.63,403.79Z"/><path class="cls-121" d="M443.69,536.13c0,2.21-1.12,3-2.86,2.82a4.12,4.12,0,0,1-4.1-4.13c-.12-1.61.41-3.23,2.36-2.94A5.85,5.85,0,0,1,443.69,536.13Z"/><path class="cls-122" d="M616.3,521.78c-.77-.36-1.51-.81-1.17-1.82s.69-2,1.94-1.87c.86.09.93.87.7,1.51C617.48,520.43,617.84,521.74,616.3,521.78Z"/><path class="cls-123" d="M605,540.67a5.36,5.36,0,0,1-3.4,3.38C601.39,541,603.55,541.15,605,540.67Z"/><path class="cls-124" d="M422.69,510.07c3.26-.31,4.28,1,2.94,4a3,3,0,0,1-1.87.39c-1.33-.15-3.1.64-3.57-1.5S421.42,510.68,422.69,510.07Z"/><path class="cls-125" d="M422.69,510.07c-.74.9-2.95.94-2.17,2.65,1,2.2,3.18,1.72,5.11,1.39-2.06,1.27-4.44,2-5.72-.53C418.83,511.48,420,509.83,422.69,510.07Z"/><path class="cls-126" d="M494.06,565.83c.1-.87.81-1,1.41-.87s1.48.42,1.54.76c.21,1.17-.78,1.17-1.57,1.12C494.81,566.8,494.14,566.68,494.06,565.83Z"/><path class="cls-26" d="M563.36,404.38c3.7,2.39,3.53-2.93,6-3,1.13,2.46,1.74,4.59-1.7,6-.83.34-.88,2.58-1.29,4A22.58,22.58,0,0,1,563.36,404.38Z"/><path class="cls-127" d="M547.48,451.23l-3.08,3h-1c-1-.77,0-2.25-1-3-.26-.6.12-1.16.14-1.78-1.23,1,0,1.66.29,2.44,0,1.91-1.26,2.53-2.79,2.94-1.56-.22-2.61-.76-1.59-2.57.22-1.58-1.3-3-1.15-4.06.27-2,1.24-5.05,3.49-4.68,2.54.42,7.45-4.18,7.64,2.76a2.78,2.78,0,0,1,1,2.43A4.7,4.7,0,0,1,549,450,2.21,2.21,0,0,1,547.48,451.23Z"/><path class="cls-128" d="M554.37,477.16c-3.13-.53-5-2.87-6.93-5-.07-2.1-2.93-3.11-2.16-5.53a18,18,0,0,1,0-7.87,3.69,3.69,0,0,1,1.21-3.49c1.43-.24,1.57.85,1.84,1.8a10.42,10.42,0,0,1-.14,2.16,13.29,13.29,0,0,0-.26,6.11,8.31,8.31,0,0,1-.09,2.77c3.3,4.64,6.94,8.62,13.5,7C559.56,477.53,556.21,474.85,554.37,477.16Z"/><path class="cls-127" d="M536.56,441.88c-1.3-.79-4,.31-4.18-1.84s2.45-1.44,3.9-1.94c2.32-.81,4.51-2,6.85-2.71,1.13-.34,2.87-.48,3,1.46.11,1.32-1,2.51-2.1,2.22C540.88,438.25,539.7,442.38,536.56,441.88Z"/><path class="cls-21" d="M538.41,452.22a1.83,1.83,0,0,0,2,2,1.34,1.34,0,0,1,0,2c-3.73,1.87-.8,5.86-3.52,9.53C536.55,460.35,535,456.15,538.41,452.22Z"/><path class="cls-96" d="M547.84,468.1l-.49-2.93a9.39,9.39,0,0,1-.05-5.95l.26-1.65c1.15-1.23-1.18-3.9,1.83-4.35,2.9,1,.56,2.9.31,3.95C548.85,460.79,550.46,464.82,547.84,468.1Z"/><path class="cls-129" d="M530.81,442.59c2,.88,4.43,1.19,4,3.75a2.35,2.35,0,0,1-3,1.91C528.79,447.06,531.24,444.56,530.81,442.59Z"/><path class="cls-130" d="M552.73,472.94c.62-2.47.6-4.53,1.33-4.84,1.44-.62,4-1.82,4.82-.1,1.44,3.07-2.13,1-2.93,2.11C555.42,470.88,554.53,471.4,552.73,472.94Z"/><path class="cls-127" d="M530,436.62c.46-2.36,2.32-2.95,4-3.67.16-.06,1,.73.9.9C534.13,436.06,531.87,436,530,436.62Z"/><path class="cls-131" d="M582.3,457.29c-3.74-.81-5.57,2.1-7.89,4.06C576.16,456.7,579.26,455.1,582.3,457.29Z"/><path class="cls-132" d="M502.31,460.86l-1.33-.18c1.58-2.23.44-5.36,2.49-7.44C504.43,456,503.55,458.45,502.31,460.86Z"/><path class="cls-133" d="M553.34,444.14l-2,4.1a1.9,1.9,0,0,1-1.49-1.2,1.77,1.77,0,0,1,.57-1.81l1.95-2.91C553.24,442.67,553.89,443.1,553.34,444.14Z"/><path class="cls-134" d="M553.45,440.45c.07-1.24-.3-3.39,1.53-2.77,1.45.49.42,2.44-.33,3.66C553.67,441.82,553.35,441.41,553.45,440.45Z"/><path class="cls-135" d="M550.49,447.3l.9.94a7.51,7.51,0,0,1-2,4c-1.74.06-1.62-.77-.91-1.88a3.47,3.47,0,0,0,.05-.85C548.94,448.55,549.17,447.43,550.49,447.3Z"/><path class="cls-136" d="M576.19,436.43l.17-1.37c1.86,1.35,3.73,2.68,4,5.23C578,440.08,577.75,437.54,576.19,436.43Z"/><path class="cls-96" d="M540.41,456.21v-2c.61-1,2.16-1.44,2-3,1.18.71,1,1.89,1,3Z"/><path class="cls-137" d="M548.43,450.32a1.93,1.93,0,0,0,.91,1.88l0,1-1.83,4.34c-.18-.84-.19-1.78-1.07-2.3l1-4Z"/><path class="cls-96" d="M550.49,447.3l-2,2.16-.09-3.22,2.08-1C550.48,445.92,550.48,446.61,550.49,447.3Z"/><path class="cls-138" d="M553.45,440.45l1.2.89c-.15,1.07-.2,2.18-1.31,2.8-.31-.61-.62-1.21-.92-1.82C552.64,441.63,552.57,440.78,553.45,440.45Z"/><path class="cls-21" d="M543.4,459.2c0,1.33,0,2.66,0,4C539.9,461.85,542.69,460.53,543.4,459.2Z"/><path class="cls-45" d="M572.37,431.34c0,.64,0,1.29,0,1.93-.9-.55-2.29-.95-1.46-2.38C571.31,430.23,572,430.76,572.37,431.34Z"/><path class="cls-139" d="M545.28,458.75v7.87A8.73,8.73,0,0,1,545.28,458.75Z"/><path class="cls-96" d="M540.56,449.4a2.54,2.54,0,0,1,2.73-2.09c.85,0,1.83.19,1.65,1.2-.28,1.54-1.81,2.1-3,2.56C541.15,451.34,540.54,450.44,540.56,449.4Z"/><path class="cls-137" d="M547.3,459.22c0,2,0,4,.05,5.95A4.65,4.65,0,0,1,547.3,459.22Z"/></svg>